<svg xmlns="http://www.w3.org/2000/svg" width="152.2486763195916" height="153.55026352506673" style=""><rect id="backgroundrect" width="100%" height="100%" x="0" y="0" fill="none" stroke="none"/>
 <title>crow</title>

 <g style="" class="currentLayer">
  <title>Layer 1</title>
  
 <g class=""><path fill="none" stroke="#000000" stroke-opacity="1" stroke-width="18" stroke-dasharray="none" stroke-linejoin="miter" stroke-linecap="butt" stroke-dashoffset="" fill-rule="nonzero" opacity="1" marker-start="" marker-mid="" marker-end="" d="M10.513229370117188,75.01058258051171 C10.513229370117188,38.99666869356014 39.85498280226233,9.825398445129395 76.07936975552798,9.825398445129395 C112.30375670879357,9.825398445129395 141.64551014093874,38.99666869356014 141.64551014093874,75.01058258051171 C141.64551014093874,111.02449646746325 112.30375670879357,140.19576671589402 76.07936975552798,140.19576671589402 C39.85498280226233,140.19576671589402 10.513229370117188,111.02449646746325 10.513229370117188,75.01058258051171 z" id="svg_1" class=""/><path d="m127.11711180003232,152.615398632613 c-0.4604323753174249,-0.19503664632731693 -1.217705378159344,-1.0308470018016695 -1.68212521729538,-1.8566050825664409 c-1.0090378136392535,-1.7938279615409969 -2.674804614228308,-2.052472094162464 -3.90168467024526,-0.6056104186149247 c-1.9957264391857086,2.3529843820361496 -6.367809351394505,3.0812243489027025 -10.431880433411479,1.7373221072425247 c-2.7139020281279684,-0.897335232102633 -3.3742230839950142,-1.685005747066915 -8.210726234325618,-9.793620113688826 c-2.9249682951172886,-4.9039305227297545 -4.444305720952988,-7.004951362073422 -6.364625444923371,-8.798778905083537 c-1.5979340323087583,-1.492906768996179 -2.9995710539993645,-3.2951003257946967 -3.8238796515464797,-4.917737856507301 c-1.3964502066373825,-2.7480779526132357 -2.0471948059730827,-3.0987992976746557 -3.027502851032525,-1.6310161004274488 c-0.734534005648584,1.100316850151658 -0.7995666917716854,2.804570832454383 -0.16318398433259146,4.269428917371452 c0.35310041446372875,0.8132155473108292 0.34192881281063037,1.1999297111113072 -0.04907564910474429,1.6937932214528932 c-0.4165435412659049,0.5269316352813844 -1.6474114600872398,0.6391000041522984 -6.941156695491761,0.6336591026940355 c-3.539001814463586,-0.0033465729277134 -6.700566678233713,-0.18289004308718462 -7.026136675352245,-0.3984397249739173 c-0.49514333962514995,-0.3285484160263541 -0.4105559617656175,-0.5901302169044023 0.5202746555153429,-1.6092516575326323 c0.9364196099936962,-1.0253931258860831 1.529315661040783,-1.2580958774163127 3.7656293245841272,-1.4769921322307586 c2.6333084978594186,-0.25781376735276046 2.676399759350062,-0.2829247831752903 5.365164087815463,-3.081645809500277 c2.9341369881882966,-3.0544400466163157 3.473567748652518,-4.710567162866295 1.992134370268464,-6.116824646423459 c-1.0333715569685697,-0.9810401527909635 -11.5175239145149,-5.725505805865765 -12.652237458922238,-5.725505805865765 c-0.6679037804890878,0 -1.3170532347030341,0.5344672838010783 -2.1609069483280186,1.778756245970726 c-1.7439676131749748,2.5710372971245645 -2.5383474898934364,3.4733861106555466 -3.5637437202390134,4.049287533184827 c-1.4211857286404372,0.7977160931797624 -4.045873739881396,5.358033180806994 -4.045873739881396,7.029640498767495 c0,1.9658483391072155 0.636939691578657,3.0464954934254886 1.7955943773143588,3.0464954934254886 c0.9519808531249166,0 2.1265949697936177,1.4656884501857759 1.609510205536008,2.008521747775257 c-0.333551707513899,0.34946951919513985 -14.608345807774096,0.5800909166521439 -15.374677782599361,0.2481963462289572 c-0.736168650361896,-0.3185091157740954 1.6620957324886936,-1.3401467640613318 3.2589947957014442,-1.387852588047385 c1.7437669233309925,-0.05231636017560966 2.3181093379469218,-0.463733053658366 3.1819929353643657,-2.280998326027155 c0.4516502994607688,-0.949639036351801 1.8650984969991162,-2.8568871926299932 3.1410542021208108,-4.2380340788955095 c2.5723825723011493,-2.7844922319498657 3.9836327572142483,-5.1529572342274195 3.9836327572142483,-6.686454802225769 c0,-1.6351993165870917 -2.7300597549903096,-6.912037087870657 -5.0833975417929596,-9.825430134799124 c-1.1996301256704032,-1.4849492413480283 -3.6856689847378434,-5.097288023160875 -5.524555313386827,-8.027425653592587 c-1.8388468290574256,-2.930131352468491 -3.5299488272668422,-5.448852289417446 -3.757967201793194,-5.596592434960724 c-0.7395995290267171,-0.4792195333321097 -2.6384941159553232,-4.92862007795471 -3.750626661535561,-8.787475223038555 c-0.597002412626148,-2.0717266073614953 -1.6127004957795141,-5.273491616886735 -2.2570617217277884,-7.115024983882904 c-1.352961954302281,-3.8668059762378943 -2.4816524094755055,-7.806435070247591 -3.1774835981542466,-11.091068357229233 c-0.2681978378432693,-1.266056753311515 -0.6464766485184436,-2.853125437067926 -0.840662226424158,-3.526542462310135 c-1.0666884649842978,-3.700647960727513 -0.7840481401182116,-9.279036395001532 0.6354634442173538,-12.540858074823081 c0.804555609881341,-1.8487337722798594 1.715280935058683,-6.2684638256579035 1.9618936425650724,-9.521033043284238 c0.18153772889131325,-2.3939125169287325 0.10289843094050886,-2.880706203621626 -0.5681162416231935,-3.5177516396771074 c-0.42835152522745773,-0.4066458599656224 -0.7788202295303346,-0.9637096260537514 -0.7788202295303346,-1.2379729126383663 c0,-0.2742218520273567 -0.2769356262790863,-1.0809409629970193 -0.6153956567764289,-1.7926510527024866 c-0.9951906133902376,-2.0926129724671245 -3.383997437469929,-3.171794431638718 -9.359607763543725,-4.2282086479236485 c-2.9447145000249146,-0.5205691288222658 -5.966676635623276,-1.2150365832756163 -6.715497124857307,-1.5432497560659646 c-1.1682303442955018,-0.5120306803107262 -1.288285163488984,-0.6892785085856922 -0.8457500930055984,-1.2486027599642873 c1.2040552768823505,-1.5219034255216721 6.169066159000098,-3.8147411531220077 9.955520945008695,-4.597478026056289 c3.1264122222113313,-0.6463372401535515 4.9932670545846225,-1.5920073481569887 6.629866000214755,-3.358417351657152 c0.9294776565236158,-1.0031892255657913 2.196936161630809,-1.9454905785048013 2.8166009661818148,-2.094002076462507 c0.6196652035367796,-0.14851568326652073 2.652776609683037,-0.8013987464052439 4.518034700991481,-1.4508540416252613 c4.402806412697911,-1.5329865417921535 6.620928718892277,-1.8465373222142456 8.80605410366112,-1.2448238446360826 c2.678232301006943,0.7374848955059052 8.254736759038002,4.791898176395297 10.44716438143024,7.5957202571028475 c1.0437455860607923,1.3345279869784714 3.5924671050464507,3.9472484487056736 5.66400163913545,5.806026962139249 c3.66867099383688,3.2916629316657184 5.79925981122148,5.8784348972766995 7.17456018100068,8.710549247036338 c0.4927478290421069,1.014477421968162 1.342984916054517,1.7217109053661226 3.144009888729603,2.615482765544474 c1.357748586624861,0.6737518499473336 2.7378403765559196,1.2269228603075146 3.067002043605924,1.2292666332433821 c1.0688832857233586,0.007575827484309679 4.632627005962372,2.4109463052710294 6.536582328439831,4.408260214573145 c3.771613712198228,3.956246025594115 7.980519023846805,11.481097285610437 10.399564979686797,18.592775696565628 c0.5845189457503549,1.7184857063940169 1.2045428374973535,3.319368420422077 1.377699072248429,3.557512491941452 c0.4213289766311649,0.5796631780913472 1.1403021381343006,3.7127853562882547 1.444326504507512,6.292610127798795 c0.13565995075976855,1.150959923863411 0.5821202432811265,3.128520849686742 0.992277618259192,4.3945742547512054 c0.4101573749780657,1.2660534050644636 1.224487338334322,4.561984096127867 1.8090062840846777,7.324290424585342 c0.5849083558651209,2.7623063284574747 1.4937979474993943,6.4935062064657805 2.0192626099541484,8.291932148269892 c0.5258664411284923,1.7980107591697574 0.9563700956172645,3.6855829416513446 0.9563700956172645,4.194102566397965 c0,1.4669465540152788 2.6875713610031604,10.874682032110572 3.906074311723381,13.672144954606056 c0.4508499339994791,1.0358664426623583 1.4766419582321941,3.933772591386199 2.279002747374475,6.439931742460669 c0.844252699398309,2.6371672690409422 2.2554665766060356,5.899199469895839 3.3494871630061867,7.74282758395344 c1.0397581222421826,1.7523808483554721 2.2626503154547515,4.033800634980202 2.717092318371475,5.069667496173441 c1.3597455104203522,3.0987992976746557 2.909802845873207,6.78855875899154 2.909802845873207,6.927102525477707 c0,0.0711431348138452 -0.4041725883781912,0.19000423100930475 -0.8977179899811746,0.2632550873419048 c-0.794781256406427,0.11844005412876607 -0.8833564970703426,0.3385872977477317 -0.7708373221776481,1.9156141700665952 c0.06981772250258933,0.9797820489614602 0.7468989737496979,3.188781763053179 1.5045677704787552,4.909371842718899 c1.6737481119986486,3.8002549622548223 2.0288514350444675,5.438806711201965 1.3617484190024438,6.28213974073869 c-0.5486054383218296,0.6935111113893394 -1.3589479378594755,0.7613076732754716 -2.634106070420295,0.22056912274742158 z" fill="#000000" id="path2384" class="" fill-opacity="1" stroke="#ffffff" stroke-opacity="1" stroke-width="2"/></g></g>
</svg>